<svg t="1635864360539" class="icon" viewBox="0 0 1024 1024" version="1.1" xmlns="http://www.w3.org/2000/svg" p-id="2557" width="200" height="200"><path d="M686.016 96 337.984 96C292.768 96 256 132.768 256 177.984l0 668C256 891.232 292.768 928 337.984 928l348 0C731.232 928 768 891.232 768 846.016L768 177.984C768 132.768 731.232 96 686.016 96zM704 846.016C704 855.936 695.936 864 686.016 864L337.984 864C328.064 864 320 855.936 320 846.016L320 177.984C320 168.064 328.064 160 337.984 160l348 0C695.936 160 704 168.064 704 177.984L704 846.016z" p-id="2558"></path><path d="M512 784m-48 0a1.5 1.5 0 1 0 96 0 1.5 1.5 0 1 0-96 0Z" p-id="2559"></path><path d="M128 513.12c0-57.92 21.056-121.696 57.76-175.008 10.016-14.56 6.336-34.464-8.224-44.512C162.976 283.552 143.04 287.296 133.056 301.824 89.184 365.568 64 442.592 64 513.12c0 85.376 24.096 168.384 69.696 240.064C139.776 762.752 150.144 768 160.704 768c5.888 0 11.808-1.632 17.152-4.992 14.912-9.504 19.328-29.248 9.824-44.192C148.64 657.44 128 586.304 128 513.12z" p-id="2560"></path><path d="M892.512 301.824c-9.984-14.528-29.856-18.208-44.512-8.224-14.56 10.016-18.208 29.952-8.192 44.512 36.672 53.344 57.76 117.12 57.76 175.008 0 73.184-20.64 144.32-59.68 205.696-9.504 14.944-5.088 34.688 9.824 44.192C853.024 766.368 858.976 768 864.832 768c10.592 0 20.928-5.248 27.04-14.816 45.6-71.68 69.696-154.688 69.696-240.064C961.568 442.592 936.416 365.568 892.512 301.824z" p-id="2561"></path><path d="M640 192l-256 0c-17.664 0-32 14.336-32 32l0 448c0 17.696 14.336 32 32 32l256 0c17.696 0 32-14.304 32-32L672 224C672 206.336 657.696 192 640 192zM608 640l-192 0L416 256l192 0L608 640z" p-id="2562"></path></svg>